<mxfile host="app.diagrams.net" modified="2023-12-07T02:45:14.489Z" agent="Mozilla/5.0 (Windows NT 10.0; Win64; x64) AppleWebKit/537.36 (KHTML, like Gecko) Chrome/119.0.0.0 Safari/537.36" etag="fG6a_nYmdjQB6o29nnHe" version="22.1.7" type="device">
  <diagram name="Page-1" id="VZjbcFz8jkAi1YUrQkLA">
    <mxGraphModel dx="1434" dy="746" grid="1" gridSize="10" guides="1" tooltips="1" connect="1" arrows="1" fold="1" page="1" pageScale="1" pageWidth="99900" pageHeight="999900" math="0" shadow="0">
      <root>
        <mxCell id="0" />
        <mxCell id="1" parent="0" />
        <mxCell id="buZSZhHKKa1Np1wNKCAH-3" style="edgeStyle=orthogonalEdgeStyle;rounded=0;orthogonalLoop=1;jettySize=auto;html=1;exitX=0.5;exitY=1;exitDx=0;exitDy=0;entryX=0.5;entryY=0;entryDx=0;entryDy=0;" edge="1" parent="1" source="hc0vXlZ0JJQvQUioTCuG-1" target="buZSZhHKKa1Np1wNKCAH-2">
          <mxGeometry relative="1" as="geometry" />
        </mxCell>
        <mxCell id="hc0vXlZ0JJQvQUioTCuG-1" value="Get random word from list" style="rounded=1;whiteSpace=wrap;html=1;" parent="1" vertex="1">
          <mxGeometry x="570" y="10" width="180" height="30" as="geometry" />
        </mxCell>
        <mxCell id="hc0vXlZ0JJQvQUioTCuG-34" style="edgeStyle=orthogonalEdgeStyle;rounded=0;orthogonalLoop=1;jettySize=auto;html=1;exitX=0.5;exitY=1;exitDx=0;exitDy=0;entryX=0.5;entryY=0;entryDx=0;entryDy=0;" parent="1" source="hc0vXlZ0JJQvQUioTCuG-2" target="hc0vXlZ0JJQvQUioTCuG-28" edge="1">
          <mxGeometry relative="1" as="geometry" />
        </mxCell>
        <mxCell id="hc0vXlZ0JJQvQUioTCuG-2" value="User Guess Letter" style="rounded=1;whiteSpace=wrap;html=1;" parent="1" vertex="1">
          <mxGeometry x="600" y="120" width="120" height="60" as="geometry" />
        </mxCell>
        <mxCell id="hc0vXlZ0JJQvQUioTCuG-26" style="edgeStyle=orthogonalEdgeStyle;rounded=0;orthogonalLoop=1;jettySize=auto;html=1;exitX=0;exitY=0.5;exitDx=0;exitDy=0;entryX=1;entryY=0.5;entryDx=0;entryDy=0;" parent="1" source="hc0vXlZ0JJQvQUioTCuG-3" target="hc0vXlZ0JJQvQUioTCuG-25" edge="1">
          <mxGeometry relative="1" as="geometry" />
        </mxCell>
        <mxCell id="hc0vXlZ0JJQvQUioTCuG-3" value="Yes" style="rhombus;whiteSpace=wrap;html=1;" parent="1" vertex="1">
          <mxGeometry x="500" y="470" width="60" height="50" as="geometry" />
        </mxCell>
        <mxCell id="hc0vXlZ0JJQvQUioTCuG-22" style="edgeStyle=orthogonalEdgeStyle;rounded=0;orthogonalLoop=1;jettySize=auto;html=1;exitX=0.5;exitY=1;exitDx=0;exitDy=0;entryX=0.5;entryY=0;entryDx=0;entryDy=0;" parent="1" source="hc0vXlZ0JJQvQUioTCuG-4" target="hc0vXlZ0JJQvQUioTCuG-21" edge="1">
          <mxGeometry relative="1" as="geometry" />
        </mxCell>
        <mxCell id="hc0vXlZ0JJQvQUioTCuG-4" value="Is the letter in the word?" style="ellipse;whiteSpace=wrap;html=1;" parent="1" vertex="1">
          <mxGeometry x="610" y="470" width="100" height="50" as="geometry" />
        </mxCell>
        <mxCell id="hc0vXlZ0JJQvQUioTCuG-13" style="edgeStyle=orthogonalEdgeStyle;rounded=0;orthogonalLoop=1;jettySize=auto;html=1;exitX=1;exitY=0.5;exitDx=0;exitDy=0;entryX=0;entryY=0.5;entryDx=0;entryDy=0;" parent="1" source="hc0vXlZ0JJQvQUioTCuG-5" target="hc0vXlZ0JJQvQUioTCuG-11" edge="1">
          <mxGeometry relative="1" as="geometry" />
        </mxCell>
        <mxCell id="hc0vXlZ0JJQvQUioTCuG-14" style="edgeStyle=orthogonalEdgeStyle;rounded=0;orthogonalLoop=1;jettySize=auto;html=1;exitX=1;exitY=0.5;exitDx=0;exitDy=0;entryX=0;entryY=0.5;entryDx=0;entryDy=0;" parent="1" source="hc0vXlZ0JJQvQUioTCuG-5" target="hc0vXlZ0JJQvQUioTCuG-12" edge="1">
          <mxGeometry relative="1" as="geometry" />
        </mxCell>
        <mxCell id="hc0vXlZ0JJQvQUioTCuG-5" value="No" style="rhombus;whiteSpace=wrap;html=1;" parent="1" vertex="1">
          <mxGeometry x="760" y="470" width="60" height="50" as="geometry" />
        </mxCell>
        <mxCell id="hc0vXlZ0JJQvQUioTCuG-10" style="edgeStyle=orthogonalEdgeStyle;rounded=0;orthogonalLoop=1;jettySize=auto;html=1;exitX=0.5;exitY=1;exitDx=0;exitDy=0;entryX=0;entryY=0.25;entryDx=0;entryDy=0;" parent="1" source="hc0vXlZ0JJQvQUioTCuG-9" target="hc0vXlZ0JJQvQUioTCuG-2" edge="1">
          <mxGeometry relative="1" as="geometry" />
        </mxCell>
        <mxCell id="hc0vXlZ0JJQvQUioTCuG-9" value="Tries Left = X" style="rounded=0;whiteSpace=wrap;html=1;" parent="1" vertex="1">
          <mxGeometry x="410" y="50" width="100" height="50" as="geometry" />
        </mxCell>
        <mxCell id="hc0vXlZ0JJQvQUioTCuG-17" style="edgeStyle=orthogonalEdgeStyle;rounded=0;orthogonalLoop=1;jettySize=auto;html=1;exitX=1;exitY=0.5;exitDx=0;exitDy=0;entryX=0;entryY=0.5;entryDx=0;entryDy=0;" parent="1" source="hc0vXlZ0JJQvQUioTCuG-11" target="hc0vXlZ0JJQvQUioTCuG-15" edge="1">
          <mxGeometry relative="1" as="geometry" />
        </mxCell>
        <mxCell id="hc0vXlZ0JJQvQUioTCuG-11" value="Tries Left - 1" style="rounded=1;whiteSpace=wrap;html=1;" parent="1" vertex="1">
          <mxGeometry x="850" y="440" width="110" height="40" as="geometry" />
        </mxCell>
        <mxCell id="hc0vXlZ0JJQvQUioTCuG-16" style="edgeStyle=orthogonalEdgeStyle;rounded=0;orthogonalLoop=1;jettySize=auto;html=1;exitX=1;exitY=0.5;exitDx=0;exitDy=0;entryX=0;entryY=0.5;entryDx=0;entryDy=0;" parent="1" source="hc0vXlZ0JJQvQUioTCuG-12" target="hc0vXlZ0JJQvQUioTCuG-15" edge="1">
          <mxGeometry relative="1" as="geometry" />
        </mxCell>
        <mxCell id="hc0vXlZ0JJQvQUioTCuG-12" value="Draw Hangman" style="rounded=1;whiteSpace=wrap;html=1;" parent="1" vertex="1">
          <mxGeometry x="850" y="510" width="110" height="40" as="geometry" />
        </mxCell>
        <mxCell id="hc0vXlZ0JJQvQUioTCuG-39" style="edgeStyle=orthogonalEdgeStyle;rounded=0;orthogonalLoop=1;jettySize=auto;html=1;exitX=0.5;exitY=1;exitDx=0;exitDy=0;entryX=0;entryY=0.5;entryDx=0;entryDy=0;" parent="1" source="hc0vXlZ0JJQvQUioTCuG-15" target="hc0vXlZ0JJQvQUioTCuG-2" edge="1">
          <mxGeometry relative="1" as="geometry">
            <Array as="points">
              <mxPoint x="1033" y="620" />
              <mxPoint x="290" y="620" />
              <mxPoint x="290" y="150" />
            </Array>
          </mxGeometry>
        </mxCell>
        <mxCell id="hc0vXlZ0JJQvQUioTCuG-15" value="" style="ellipse;whiteSpace=wrap;html=1;aspect=fixed;" parent="1" vertex="1">
          <mxGeometry x="1010" y="470" width="45" height="45" as="geometry" />
        </mxCell>
        <mxCell id="hc0vXlZ0JJQvQUioTCuG-23" style="edgeStyle=orthogonalEdgeStyle;rounded=0;orthogonalLoop=1;jettySize=auto;html=1;exitX=1;exitY=0.5;exitDx=0;exitDy=0;entryX=0;entryY=0.5;entryDx=0;entryDy=0;" parent="1" source="hc0vXlZ0JJQvQUioTCuG-21" target="hc0vXlZ0JJQvQUioTCuG-5" edge="1">
          <mxGeometry relative="1" as="geometry" />
        </mxCell>
        <mxCell id="hc0vXlZ0JJQvQUioTCuG-24" style="edgeStyle=orthogonalEdgeStyle;rounded=0;orthogonalLoop=1;jettySize=auto;html=1;exitX=0;exitY=0.5;exitDx=0;exitDy=0;entryX=1;entryY=0.5;entryDx=0;entryDy=0;" parent="1" source="hc0vXlZ0JJQvQUioTCuG-21" target="hc0vXlZ0JJQvQUioTCuG-3" edge="1">
          <mxGeometry relative="1" as="geometry" />
        </mxCell>
        <mxCell id="hc0vXlZ0JJQvQUioTCuG-21" value="Check each&lt;br&gt;char in the &lt;br&gt;prompt word" style="shape=parallelogram;perimeter=parallelogramPerimeter;whiteSpace=wrap;html=1;fixedSize=1;" parent="1" vertex="1">
          <mxGeometry x="600" y="550" width="120" height="60" as="geometry" />
        </mxCell>
        <mxCell id="hc0vXlZ0JJQvQUioTCuG-38" style="edgeStyle=orthogonalEdgeStyle;rounded=0;orthogonalLoop=1;jettySize=auto;html=1;exitX=0;exitY=0.5;exitDx=0;exitDy=0;entryX=0;entryY=0.75;entryDx=0;entryDy=0;" parent="1" source="hc0vXlZ0JJQvQUioTCuG-25" target="hc0vXlZ0JJQvQUioTCuG-2" edge="1">
          <mxGeometry relative="1" as="geometry" />
        </mxCell>
        <mxCell id="hc0vXlZ0JJQvQUioTCuG-25" value="Reveal guessed letters in the word" style="rounded=1;whiteSpace=wrap;html=1;" parent="1" vertex="1">
          <mxGeometry x="340" y="475" width="120" height="40" as="geometry" />
        </mxCell>
        <mxCell id="hc0vXlZ0JJQvQUioTCuG-40" style="edgeStyle=orthogonalEdgeStyle;rounded=0;orthogonalLoop=1;jettySize=auto;html=1;exitX=1;exitY=0.5;exitDx=0;exitDy=0;entryX=0;entryY=0.5;entryDx=0;entryDy=0;" parent="1" source="hc0vXlZ0JJQvQUioTCuG-28" target="hc0vXlZ0JJQvQUioTCuG-29" edge="1">
          <mxGeometry relative="1" as="geometry" />
        </mxCell>
        <mxCell id="hc0vXlZ0JJQvQUioTCuG-50" style="edgeStyle=orthogonalEdgeStyle;rounded=0;orthogonalLoop=1;jettySize=auto;html=1;exitX=0.5;exitY=1;exitDx=0;exitDy=0;entryX=0.5;entryY=0;entryDx=0;entryDy=0;" parent="1" source="hc0vXlZ0JJQvQUioTCuG-28" target="hc0vXlZ0JJQvQUioTCuG-30" edge="1">
          <mxGeometry relative="1" as="geometry" />
        </mxCell>
        <mxCell id="hc0vXlZ0JJQvQUioTCuG-28" value="Is the word completely guessed?" style="rounded=1;whiteSpace=wrap;html=1;" parent="1" vertex="1">
          <mxGeometry x="600" y="200" width="120" height="60" as="geometry" />
        </mxCell>
        <mxCell id="hc0vXlZ0JJQvQUioTCuG-53" style="edgeStyle=orthogonalEdgeStyle;rounded=0;orthogonalLoop=1;jettySize=auto;html=1;exitX=1;exitY=0.5;exitDx=0;exitDy=0;entryX=0;entryY=0.5;entryDx=0;entryDy=0;" parent="1" source="hc0vXlZ0JJQvQUioTCuG-29" target="hc0vXlZ0JJQvQUioTCuG-41" edge="1">
          <mxGeometry relative="1" as="geometry" />
        </mxCell>
        <mxCell id="hc0vXlZ0JJQvQUioTCuG-29" value="Yes" style="rhombus;whiteSpace=wrap;html=1;" parent="1" vertex="1">
          <mxGeometry x="820" y="205" width="60" height="50" as="geometry" />
        </mxCell>
        <mxCell id="hc0vXlZ0JJQvQUioTCuG-51" style="edgeStyle=orthogonalEdgeStyle;rounded=0;orthogonalLoop=1;jettySize=auto;html=1;exitX=0.5;exitY=1;exitDx=0;exitDy=0;entryX=0.5;entryY=0;entryDx=0;entryDy=0;" parent="1" source="hc0vXlZ0JJQvQUioTCuG-30" target="hc0vXlZ0JJQvQUioTCuG-42" edge="1">
          <mxGeometry relative="1" as="geometry" />
        </mxCell>
        <mxCell id="hc0vXlZ0JJQvQUioTCuG-30" value="No" style="rhombus;whiteSpace=wrap;html=1;" parent="1" vertex="1">
          <mxGeometry x="630" y="270" width="60" height="50" as="geometry" />
        </mxCell>
        <mxCell id="hc0vXlZ0JJQvQUioTCuG-41" value="User Win" style="rounded=1;whiteSpace=wrap;html=1;" parent="1" vertex="1">
          <mxGeometry x="950" y="200" width="120" height="60" as="geometry" />
        </mxCell>
        <mxCell id="hc0vXlZ0JJQvQUioTCuG-47" style="edgeStyle=orthogonalEdgeStyle;rounded=0;orthogonalLoop=1;jettySize=auto;html=1;exitX=0.5;exitY=1;exitDx=0;exitDy=0;entryX=0.5;entryY=0;entryDx=0;entryDy=0;" parent="1" source="hc0vXlZ0JJQvQUioTCuG-42" target="hc0vXlZ0JJQvQUioTCuG-43" edge="1">
          <mxGeometry relative="1" as="geometry" />
        </mxCell>
        <mxCell id="hc0vXlZ0JJQvQUioTCuG-52" style="edgeStyle=orthogonalEdgeStyle;rounded=0;orthogonalLoop=1;jettySize=auto;html=1;exitX=1;exitY=0.5;exitDx=0;exitDy=0;entryX=0;entryY=0.5;entryDx=0;entryDy=0;" parent="1" source="hc0vXlZ0JJQvQUioTCuG-42" target="hc0vXlZ0JJQvQUioTCuG-44" edge="1">
          <mxGeometry relative="1" as="geometry" />
        </mxCell>
        <mxCell id="hc0vXlZ0JJQvQUioTCuG-42" value="User has more tries?" style="rounded=1;whiteSpace=wrap;html=1;" parent="1" vertex="1">
          <mxGeometry x="600" y="330" width="120" height="60" as="geometry" />
        </mxCell>
        <mxCell id="hc0vXlZ0JJQvQUioTCuG-48" style="edgeStyle=orthogonalEdgeStyle;rounded=0;orthogonalLoop=1;jettySize=auto;html=1;exitX=0.5;exitY=1;exitDx=0;exitDy=0;entryX=0.5;entryY=0;entryDx=0;entryDy=0;" parent="1" source="hc0vXlZ0JJQvQUioTCuG-43" target="hc0vXlZ0JJQvQUioTCuG-4" edge="1">
          <mxGeometry relative="1" as="geometry" />
        </mxCell>
        <mxCell id="hc0vXlZ0JJQvQUioTCuG-43" value="Yes" style="rhombus;whiteSpace=wrap;html=1;" parent="1" vertex="1">
          <mxGeometry x="630" y="410" width="60" height="50" as="geometry" />
        </mxCell>
        <mxCell id="hc0vXlZ0JJQvQUioTCuG-55" style="edgeStyle=orthogonalEdgeStyle;rounded=0;orthogonalLoop=1;jettySize=auto;html=1;exitX=1;exitY=0.5;exitDx=0;exitDy=0;entryX=0;entryY=0.5;entryDx=0;entryDy=0;" parent="1" source="hc0vXlZ0JJQvQUioTCuG-44" target="hc0vXlZ0JJQvQUioTCuG-54" edge="1">
          <mxGeometry relative="1" as="geometry" />
        </mxCell>
        <mxCell id="hc0vXlZ0JJQvQUioTCuG-44" value="No" style="rhombus;whiteSpace=wrap;html=1;" parent="1" vertex="1">
          <mxGeometry x="820" y="335" width="60" height="50" as="geometry" />
        </mxCell>
        <mxCell id="hc0vXlZ0JJQvQUioTCuG-54" value="Game Over" style="rounded=1;whiteSpace=wrap;html=1;" parent="1" vertex="1">
          <mxGeometry x="950" y="330" width="120" height="60" as="geometry" />
        </mxCell>
        <mxCell id="buZSZhHKKa1Np1wNKCAH-1" style="edgeStyle=orthogonalEdgeStyle;rounded=0;orthogonalLoop=1;jettySize=auto;html=1;exitX=0.5;exitY=1;exitDx=0;exitDy=0;" edge="1" parent="1" source="hc0vXlZ0JJQvQUioTCuG-1" target="hc0vXlZ0JJQvQUioTCuG-1">
          <mxGeometry relative="1" as="geometry" />
        </mxCell>
        <mxCell id="buZSZhHKKa1Np1wNKCAH-4" style="edgeStyle=orthogonalEdgeStyle;rounded=0;orthogonalLoop=1;jettySize=auto;html=1;exitX=0.5;exitY=1;exitDx=0;exitDy=0;entryX=0.5;entryY=0;entryDx=0;entryDy=0;" edge="1" parent="1" source="buZSZhHKKa1Np1wNKCAH-2" target="hc0vXlZ0JJQvQUioTCuG-2">
          <mxGeometry relative="1" as="geometry" />
        </mxCell>
        <mxCell id="buZSZhHKKa1Np1wNKCAH-2" value="Display blanks for num of each char in word" style="rounded=1;whiteSpace=wrap;html=1;" vertex="1" parent="1">
          <mxGeometry x="570" y="70" width="180" height="30" as="geometry" />
        </mxCell>
      </root>
    </mxGraphModel>
  </diagram>
</mxfile>
